<?xml version="1.0" encoding="utf-8"?><!-- Uploaded to: SVG Repo, www.svgrepo.com, Generator: SVG Repo Mixer Tools -->
<svg width="800px" height="800px" viewBox="0 0 24 24" fill="none" xmlns="http://www.w3.org/2000/svg">
<path d="M9 13C8.44772 13 8 13.4477 8 14C8 14.5523 8.44772 15 9 15C9.55229 15 10 14.5523 10 14C10 13.4477 9.55229 13 9 13Z" fill="#0F0F0F"/>
<path d="M14 14C14 13.4477 14.4477 13 15 13C15.5523 13 16 13.4477 16 14C16 14.5523 15.5523 15 15 15C14.4477 15 14 14.5523 14 14Z" fill="#0F0F0F"/>
<path d="M8.29289 16.7929C8.97405 16.1117 9.57505 16.7945 10.1972 17.1056C10.5749 17.2944 11.1728 17.5 12 17.5C12.8272 17.5 13.4251 17.2944 13.8028 17.1056C14.4249 16.7945 15.0259 16.1117 15.7071 16.7929C16.5738 17.6596 15.4209 18.5326 14.6972 18.8944C14.0749 19.2056 13.1728 19.5 12 19.5C10.8272 19.5 9.92507 19.2056 9.30279 18.8944C8.57552 18.5308 7.44766 17.6381 8.29289 16.7929Z" fill="#0F0F0F"/>
<path fill-rule="evenodd" clip-rule="evenodd" d="M12.4703 1.15182C12.7232 0.993884 13.0334 0.957034 13.3162 1.05132L16.6328 2.15685C17.1818 1.45278 18.038 1 19 1C20.6569 1 22 2.34315 22 4C22 5.65686 20.6569 7 19 7C17.3613 7 16.0294 5.68608 16.0005 4.05426L13.8314 3.33121L13.0711 9.03277C14.2994 9.1083 15.4685 9.31237 16.545 9.62357C17.166 8.64754 18.2574 8 19.5 8C21.433 8 23 9.56701 23 11.5C23 12.2757 22.7477 12.9924 22.3206 13.5726C22.76 14.3288 23 15.1466 23 16C23 19.866 18.0751 23 12 23C5.92487 23 1 19.866 1 16C1 15.1466 1.23999 14.3288 1.67937 13.5726C1.25233 12.9924 1 12.2757 1 11.5C1 9.56701 2.567 8 4.5 8C5.74259 8 6.83394 8.64754 7.45501 9.62358C8.56809 9.30178 9.78028 9.09454 11.0544 9.02551L12.0088 1.86784C12.0482 1.5723 12.2174 1.30975 12.4703 1.15182ZM20 4C20 4.55229 19.5523 5 19 5C18.4477 5 18 4.55229 18 4C18 3.44772 18.4477 3 19 3C19.5523 3 20 3.44772 20 4ZM18.7044 12.7376C20.3517 13.7858 21 14.988 21 16C21 17.012 20.3517 18.2142 18.7044 19.2624C17.0809 20.2956 14.7159 21 12 21C9.28405 21 6.91908 20.2956 5.29558 19.2624C3.64835 18.2142 3 17.012 3 16C3 14.988 3.64835 13.7858 5.29558 12.7376C6.91908 11.7044 9.28405 11 12 11C14.7159 11 17.0809 11.7044 18.7044 12.7376ZM18.5221 10.3626C19.5949 9.4393 21.352 10.5086 20.9402 11.9207C20.2671 11.3244 19.4503 10.7982 18.5221 10.3626ZM3.05982 11.9207C3.73291 11.3244 4.5497 10.7982 5.47793 10.3626C4.40504 9.43929 2.64794 10.5086 3.05982 11.9207Z" fill="#0F0F0F"/>
</svg>